<svg width="374" height="77" viewBox="0 0 374 77" fill="none" xmlns="http://www.w3.org/2000/svg">
<path fill-rule="evenodd" clip-rule="evenodd" d="M14.0107 68.3227C6.03122 61.1132 1.01709 50.7812 1.01709 39.3344C1.01709 18.3968 17.7844 1.19133 38.8006 0V48.5625H38.8056V52.8657C38.8056 54.4941 40.138 55.8265 41.7664 55.8265C43.3948 55.8265 44.7271 54.4941 44.7271 52.8657V50.8765H44.7243V0C65.7404 1.19133 82.5079 18.3968 82.5079 39.3344C82.5079 50.6864 77.5762 60.9423 69.7115 68.1429V53.1984C71.9099 49.0421 73.1544 44.3259 73.1544 39.3339C73.1544 26.5684 65.0267 15.6125 53.5959 11.1984V50.8765L53.5954 52.7748C53.5954 59.2811 48.2727 64.6039 41.7664 64.6039C35.2602 64.6039 29.9368 59.2811 29.9368 52.7748V50.8765H29.9291V11.1984C18.4982 15.6125 10.3704 26.5684 10.3704 39.3339C10.3704 44.4735 11.6894 49.3207 14.0107 53.5655V68.3227Z" fill="white"/>
<path fill-rule="evenodd" clip-rule="evenodd" d="M0 76.5406V67.8855H22.6493C19.0855 63.6607 16.9308 58.2116 16.9308 52.2844V51.0122V44.6648V30.7241C18.8212 25.5346 21.9764 21.5806 25.7612 18.6079V51.0122H25.7557V52.1299C25.7557 60.7295 32.7915 67.7651 41.3909 67.7651H42.1328C50.7323 67.7651 57.768 60.7295 57.768 52.1299V44.6648H57.776V18.695C61.6737 21.2896 65.8551 27.3427 66.5929 31.0939V44.6648V51.0122V52.2844C66.5929 58.2116 64.4351 63.6607 60.8711 67.8855H83.5184V76.5406H42.3375H41.1863H0Z" fill="white"/>
<path fill-rule="evenodd" clip-rule="evenodd" d="M108.052 21.1859H108.504C109.127 21.1859 109.609 21.0373 109.955 20.7401C110.3 20.4432 110.472 20.0305 110.472 19.5023C110.472 18.9411 110.3 18.5088 109.958 18.2085C109.619 17.9081 109.127 17.7596 108.483 17.7596H108.052V21.1859ZM104.253 28.5335V14.3761H108.072C110.163 14.3761 111.721 14.7921 112.741 15.6272C113.761 16.4623 114.27 17.7431 114.27 19.4627C114.27 21.1264 113.774 22.4204 112.785 23.3479C111.796 24.2721 110.41 24.7341 108.624 24.7341H108.052V28.5335H104.253ZM121.93 17.9541V28.5335H118.11V17.9541H115.133L115.523 14.3761H124.497L124.907 17.9541H121.93ZM124.216 28.5335V24.8499H127.687V28.5335H124.216ZM135.85 28.5335L137.704 14.3761H140.802L143.389 20.6708L146.018 14.3761H149.036L151.131 28.5335H147.209L146.387 22.0341L143.55 28.5929L140.473 22.0341L139.772 28.5335H135.85ZM156.774 28.5335H152.975V14.3761H156.774V28.5335ZM165.05 17.9541V28.5335H161.23V17.9541H158.253L158.643 14.3761H167.617L168.027 17.9541H165.05ZM173.079 21.0273H173.449C174.133 21.0273 174.653 20.8788 175.009 20.5784C175.369 20.2781 175.546 19.8424 175.546 19.2681C175.546 18.6871 175.375 18.2447 175.03 17.9379C174.684 17.6308 174.191 17.4789 173.551 17.4789H173.079V21.0273ZM169.28 28.5335V14.3761H173.431C175.362 14.3761 176.837 14.7589 177.857 15.5216C178.877 16.2873 179.386 17.3964 179.386 18.8521C179.386 19.6905 179.178 20.4168 178.764 21.034C178.349 21.6479 177.781 22.0771 177.059 22.3145L180.29 28.5335H176.118L173.079 22.4697V28.5335H169.28ZM185.896 23.4073H188.915L187.399 18.6309L185.896 23.4073ZM180.311 28.5335L185.445 14.3761H189.736L194.589 28.5335H190.557L190.027 26.9457H184.832L184.27 28.5335H180.311ZM208.32 22.9451V14.3761H212.119V22.9451C212.119 24.2721 212.024 25.2656 211.829 25.9257C211.634 26.586 211.308 27.1537 210.846 27.6223C210.446 28.0284 209.922 28.3453 209.282 28.5696C208.639 28.7976 207.941 28.9099 207.184 28.9099C206.431 28.9099 205.733 28.7976 205.09 28.5696C204.45 28.3453 203.929 28.0284 203.536 27.6223C203.067 27.1471 202.735 26.5728 202.537 25.9027C202.341 25.2327 202.242 24.2457 202.242 22.9451V14.3761H206.062V22.9451C206.062 23.7439 206.147 24.3019 206.318 24.6155C206.489 24.9324 206.777 25.0907 207.188 25.0907C207.595 25.0907 207.886 24.9289 208.06 24.6087C208.235 24.2853 208.32 23.7307 208.32 22.9451ZM214.283 28.5731L214.173 24.6747C214.461 24.7903 214.734 24.8793 214.995 24.9388C215.255 25.0017 215.505 25.0312 215.737 25.0312C216.158 25.0312 216.504 24.9256 216.771 24.7112C217.038 24.4997 217.171 24.2356 217.171 23.9188C217.171 23.4996 216.808 22.9683 216.079 22.3247C215.83 22.1068 215.641 21.9317 215.508 21.8031C214.991 21.2981 214.611 20.7797 214.361 20.2449C214.115 19.7103 213.992 19.1325 213.992 18.5153C213.992 17.2445 214.454 16.2015 215.374 15.3829C216.299 14.5644 217.493 14.1549 218.954 14.1549C219.416 14.1549 219.851 14.1847 220.255 14.2408C220.659 14.3003 221.049 14.3893 221.422 14.5115V18.0235C221.104 17.8685 220.806 17.7529 220.532 17.6737C220.255 17.5977 220.012 17.5581 219.8 17.5581C219.317 17.5581 218.948 17.6539 218.691 17.8487C218.434 18.0401 218.304 18.314 218.304 18.6705C218.304 19.07 218.657 19.5353 219.358 20.0701C219.639 20.2913 219.855 20.4661 220.008 20.5949C220.577 21.0703 221.011 21.6181 221.309 22.2388C221.607 22.856 221.754 23.5163 221.754 24.2193C221.754 25.6321 221.268 26.7412 220.296 27.5465C219.32 28.3519 217.972 28.7547 216.247 28.7547C215.895 28.7479 215.552 28.7316 215.224 28.7019C214.899 28.6721 214.584 28.6292 214.283 28.5731ZM227.853 23.4073H230.872L229.355 18.6309L227.853 23.4073ZM222.267 28.5335L227.401 14.3761H231.693L236.546 28.5335H232.514L231.984 26.9457H226.789L226.227 28.5335H222.267ZM237.857 28.5335V14.3761H241.656V19.3273H244.856V14.3761H248.655V28.5335H244.856V23.0309H241.656V28.5335H237.857ZM255.558 23.4073H258.577L257.06 18.6309L255.558 23.4073ZM249.973 28.5335L255.106 14.3761H259.398L264.251 28.5335H260.219L259.689 26.9457H254.494L253.932 28.5335H249.973ZM275.802 21.1859H276.254C276.877 21.1859 277.359 21.0373 277.705 20.7401C278.051 20.4432 278.222 20.0305 278.222 19.5023C278.222 18.9411 278.051 18.5088 277.709 18.2085C277.37 17.9081 276.877 17.7596 276.233 17.7596H275.802V21.1859ZM272.003 28.5335V14.3761H275.823C277.914 14.3761 279.471 14.7921 280.491 15.6272C281.511 16.4623 282.021 17.7431 282.021 19.4627C282.021 21.1264 281.525 22.4204 280.536 23.3479C279.546 24.2721 278.16 24.7341 276.374 24.7341H275.802V28.5335H272.003ZM287.873 21.0273H288.243C288.927 21.0273 289.448 20.8788 289.803 20.5784C290.163 20.2781 290.341 19.8424 290.341 19.2681C290.341 18.6871 290.17 18.2447 289.824 17.9379C289.479 17.6308 288.986 17.4789 288.346 17.4789H287.873V21.0273ZM284.075 28.5335V14.3761H288.226C290.156 14.3761 291.631 14.7589 292.651 15.5216C293.671 16.2873 294.181 17.3964 294.181 18.8521C294.181 19.6905 293.972 20.4168 293.558 21.034C293.144 21.6479 292.576 22.0771 291.854 22.3145L295.085 28.5335H290.913L287.873 22.4697V28.5335H284.075ZM300.235 28.5335H296.436V14.3761H300.235V28.5335ZM302.905 28.5335V14.3761H304.568L310.034 20.5751V14.3761H313.823V28.5335H312.097L306.704 22.394V28.5335H302.905ZM321.937 17.9541V28.5335H318.118V17.9541H315.14L315.53 14.3761H324.504L324.915 17.9541H321.937ZM330.107 28.5335H326.308V14.3761H330.107V28.5335ZM332.776 28.5335V14.3761H334.439L339.905 20.5751V14.3761H343.694V28.5335H341.969L336.575 22.394V28.5335H332.776ZM349.981 24.7508C350.963 24.6551 351.75 24.3019 352.339 23.6979C352.928 23.0904 353.222 22.3345 353.222 21.4233C353.222 20.4432 352.924 19.6409 352.325 19.0104C351.726 18.3833 350.943 18.06 349.981 18.0401V24.7508ZM348.397 14.3761C349.796 14.3761 350.909 14.462 351.74 14.6335C352.575 14.802 353.321 15.0857 353.982 15.4787C355.033 16.1092 355.83 16.9408 356.374 17.9673C356.918 18.9972 357.192 20.1888 357.192 21.5424C357.192 22.7603 356.891 23.8761 356.289 24.8925C355.686 25.9092 354.837 26.7379 353.742 27.3815C353.061 27.7809 352.291 28.0745 351.435 28.2595C350.58 28.4411 349.567 28.5335 348.397 28.5335H346.182V14.3761H348.397ZM365.755 17.9345C364.766 17.9345 363.938 18.2711 363.267 18.9445C362.6 19.6179 362.265 20.4529 362.265 21.4432C362.265 22.4369 362.596 23.2687 363.263 23.9387C363.928 24.6087 364.759 24.9456 365.755 24.9456C366.744 24.9456 367.573 24.6087 368.243 23.9353C368.911 23.2619 369.246 22.4303 369.246 21.4432C369.246 20.4597 368.911 19.6277 368.243 18.9512C367.573 18.2744 366.744 17.9345 365.755 17.9345ZM365.734 14C366.666 14 367.545 14.1519 368.383 14.4553C369.219 14.7559 369.951 15.1916 370.577 15.7591C371.419 16.5019 372.066 17.3603 372.515 18.3404C372.963 19.3209 373.185 20.3572 373.185 21.4467C373.185 22.5357 372.959 23.5724 372.508 24.5593C372.056 25.5463 371.412 26.4077 370.577 27.1504C369.937 27.718 369.198 28.1539 368.366 28.4543C367.535 28.758 366.659 28.9099 365.734 28.9099C364.814 28.9099 363.938 28.758 363.113 28.4543C362.288 28.1539 361.549 27.718 360.902 27.1504C360.074 26.4144 359.434 25.556 358.985 24.5691C358.537 23.5821 358.315 22.5425 358.315 21.4467C358.315 20.3508 358.537 19.3108 358.982 18.3305C359.427 17.3501 360.067 16.4953 360.902 15.7591C361.549 15.1848 362.288 14.7492 363.113 14.4488C363.938 14.1485 364.814 14 365.734 14Z" fill="white"/>
<path fill-rule="evenodd" clip-rule="evenodd" d="M184.117 47.0766L184.275 47.7052L184.198 48.2556L183.412 49.8306L182.941 50.2238L182.787 50.3044L182.239 50.2238L181.534 49.9112L181.064 49.515L181.218 48.9644V48.8872L181.454 48.4942L182.706 46.9964L183.335 46.8417L183.647 46.9964L184.117 47.0766ZM230.173 46.9958L230.332 47.1581L228.239 48.8577L227.109 49.2618L226.867 49.345H226.788L226.546 49.1825L226.383 48.8577L226.466 46.1874V46.0249L226.546 45.8621L226.708 45.6998V45.6204L227.351 45.5376H227.676L230.173 46.9958ZM222.597 39.3849V40.7598L222.518 41.1674L222.839 42.3802L223.001 42.9468L223.081 43.596L222.839 43.6754L222.518 43.9213H222.276L221.875 43.838L221.633 43.596L221.471 41.5713L221.391 40.9224L221.551 40.5178L221.633 40.1933V39.5477L222.034 39.2224L222.113 39.143L222.196 39.2224L222.438 39.3849H222.597ZM224.128 38.0896L223.081 38.0101L220.504 38.9808H220.099L220.02 39.0598H219.941L220.183 41.1674L220.342 45.6998L220.262 48.7777L220.183 49.6694L219.941 50.4778V50.6404V50.8032L220.342 50.8821H220.504H220.583H220.908L221.15 50.7198L221.309 50.6404V50.5573L221.15 49.4241L221.229 46.6708L221.391 44.6464V44.4874L221.471 44.4041H221.551L222.518 45.1333L224.452 46.1044L224.611 45.9414L224.694 45.8621V45.6998L224.611 45.4581L224.532 45.2958L224.369 44.163L224.21 43.5132L223.565 41.5713L223.485 41.1674L223.648 40.5178L223.807 40.2761L224.694 38.8185L224.774 38.414L224.694 38.3312L224.128 38.0896ZM229.849 38.1689L229.932 38.6557L229.69 41.6513L226.95 42.8673H226.867V42.5428L226.95 42.3005L227.029 42.0552L227.593 41.5713L228.802 40.9224L228.964 40.4386L229.044 40.2761V40.114L228.964 39.71L228.723 39.4644L228.56 39.3056L228.159 39.3849L226.95 39.9517V39.3849L227.029 39.143V38.739L228.882 37.927L229.286 37.8476L229.69 38.0896L229.849 38.1689ZM232.588 37.1977L231.542 36.8733L230.332 36.6316L229.607 36.7938L227.351 37.4436L225.821 38.0896V38.6557L225.903 38.898L225.337 47.8868L225.499 50.3984L225.821 51.8528H225.983L228.56 50.3153L229.365 49.345L230.654 47.3202L231.946 47.9662L232.588 48.3737L232.751 48.5326L233.234 49.2618L233.556 50.074L233.635 50.236L237.18 49.8284L237.1 49.6694L236.938 49.4241L236.537 49.1825L233.556 48.0493L230.253 45.6998L230.332 45.6204L233.393 43.6754L233.877 43.596L233.96 43.4337L234.039 43.3509V43.2714L232.993 42.3802H232.91H232.83H232.588H232.508L231.22 43.838L230.737 44.163L228.639 44.892L228.481 44.9709L228.239 44.892L227.676 44.4041L227.433 44.2424V44.163V44.0802L227.593 44.0008L227.676 43.9213L228.964 43.5132L230.737 43.1921L231.058 42.1384L231.22 41.8966L231.783 39.3849L231.863 38.898L232.751 37.2812H232.667L232.588 37.1977ZM205.726 36.0957L204.411 35.2388H204.331H204.178L203.945 35.319L203.866 35.395L203.633 36.9526L202.939 38.9745L202.859 39.1312L202.707 39.2873L202.009 39.5194H201.93L200.771 39.8321L199.299 40.0676L197.516 40.2202L197.364 40.3764V40.8449L197.593 41.7778L197.905 42.4022L197.982 42.5585H198.058H198.29H198.37L199.22 41.7778L199.917 41.4657L201.777 41.3128L201.853 41.3894V41.4657L201.777 41.8576L201.697 41.9337L200.924 43.023L199.143 44.9692L196.899 46.6828L195.348 47.6156V47.6922V47.7717V47.848V47.928L195.427 48.0044L195.969 47.928H196.122L198.446 47.3037L199.299 46.8386L199.452 46.7589L199.608 46.6032L199.917 45.9022L199.994 45.8261L200.615 44.8925L201.389 44.1916L201.545 44.348L201.312 46.527V51.428L201.389 51.8202L201.545 51.8962H201.777H202.009L202.086 51.8202L202.162 51.7402L202.318 51.6638L202.395 51.5841V51.352V51.2753L202.474 49.3293L202.627 49.0172L202.783 48.785L204.719 47.848L205.108 47.4601V47.148L204.952 46.8386V46.7589L204.643 46.6828H204.563L202.939 47.2274L202.859 47.071L202.783 46.9153V46.3706V46.138L203.015 45.9022L203.171 45.7461H203.248L204.719 45.2813L205.028 45.1252V44.348L204.952 44.1916L204.875 44.1122L204.719 44.0358H204.563L203.325 44.1916H203.015V44.1122L203.092 43.8034L203.248 43.4913L203.866 43.1033L204.178 43.023L205.34 42.7112H206.034L206.114 42.7906L206.347 43.1794L206.499 43.9561L206.578 50.8072L206.499 50.9632L206.423 51.0396L206.267 51.1958H205.957H205.802L203.945 51.0396L203.404 50.8837V51.0396L203.48 51.1958L203.557 51.352L203.633 51.428L204.563 52.1286L205.726 52.6734L207.429 53.2178L208.203 53.2974H208.282H208.359V53.2178H208.435L208.515 52.9856V52.9093L208.359 43.724L208.435 42.4785L208.515 41.9337L208.435 41.7778L208.282 41.6221H208.203L207.044 41.4657L204.875 41.7778L203.404 42.2464H203.171V42.1664V42.0104L203.248 41.9337L203.48 41.7016L204.098 40.7652L204.411 40.6885L206.964 40.1442H208.979L211.301 40.4558L211.377 40.3L211.457 40.0676L211.377 39.6757V39.4433L210.993 38.354L210.836 38.1218L206.964 38.7428L205.028 38.8988L204.875 38.7428L205.184 37.8862L205.726 36.72L205.957 36.5642L206.034 36.4084H205.957L205.726 36.1757V36.0957ZM254.161 44.6469L252.789 43.5118L252.627 43.4318L252.547 43.3489L252.305 43.4318L251.741 44.5674L250.044 47.327L248.673 48.8672L248.268 49.1097L247.541 49.2722L247.382 49.435L247.299 49.5148V49.5981L247.461 49.9238L248.025 51.5434H248.188L248.431 51.6268L248.673 51.5434L249.237 51.2212L250.044 50.8133H250.207L252.627 50.7338L253.305 50.4029C254.411 49.772 254.761 49.8932 254.761 49.9724L255.166 50.703L256.159 51.6438L257.149 51.7896L257.311 51.7062L257.474 51.464L257.553 50.9758L257.474 50.0032L257.149 49.2722L256.179 48.1365L255.698 47.8116L255.05 47.4065H254.971H254.161L253.839 47.5693L253.759 47.6493L252.305 48.6253L251.9 48.8672H250.609L251.013 48.3793L251.176 48.2997L253.437 45.5406L253.517 45.4609L254.002 45.2978H254.243L254.323 45.1353V44.9725L254.243 44.81L254.161 44.6469ZM252.062 41.3204L250.851 40.3472L250.609 40.4272L249.965 41.4829L247.382 44.7302L244.553 47.5693L244.473 47.8116L244.636 47.8946L245.363 47.9744H245.523L246.571 47.5693L247.783 46.8386L247.863 46.5964L248.025 46.1913L248.105 46.1085L249.802 44.4049L250.934 43.1068L251.256 42.6184L251.741 41.8082L251.983 41.5657H252.062V41.4829V41.4032V41.3204ZM252.869 36.7778H252.789H252.71L252.627 36.6948L252.467 36.8573L252.142 37.4254L251.9 38.2389V38.6438V38.8068L251.983 38.8861L252.467 39.2117L252.71 39.3742L252.789 39.5377L253.517 40.4272L255.614 42.7812L256.664 43.8368L257.149 44.2418L257.474 44.81L257.553 45.4609V45.7032L257.391 46.9186H257.474L257.633 47.0809L259.087 47.8116L260.863 48.6253L262.075 48.8672L262.961 48.7878V48.6253L262.802 48.2997L262.56 47.8946L259.492 44.9725L257.553 42.8642L254.728 39.2117L253.032 37.2626L252.869 36.7778ZM275.356 45.421V45.8266L275.272 45.9892L275.193 46.2312L274.307 46.6362H273.175L273.012 46.2312L272.932 46.1517L273.012 45.8266L273.739 45.3382L274.629 45.0961H275.03L275.193 45.2589L275.356 45.421ZM277.455 43.7976L276.405 43.4722H275.113L271.156 44.6082L270.429 45.0961V45.1754L270.751 45.9061L270.835 45.9892L271.561 47.0413L272.125 47.9348L272.531 48.5029L272.77 48.6652L273.012 48.7485H273.175L274.224 48.2601L277.132 47.772L277.291 47.5297V47.4497V47.3669L277.211 46.719L277.291 46.4737L277.455 46.2312L277.617 46.1517L278.344 44.8536V44.4448L278.261 44.3654L278.018 44.1232L277.455 43.7976ZM278.829 41.2808L278.745 40.9588L278.503 40.5498L278.018 40.1448L277.859 40.0653L274.951 40.8754L272.205 41.4436L269.865 41.7689V41.8484L269.785 41.9314L269.702 42.0942V42.4198L270.028 43.3925H270.107H270.187L270.27 43.4722L271.963 42.9038L273.337 42.7416L274.144 42.4198L275.515 42.1737L277.132 41.8484L278.665 41.9314H278.745L278.829 41.8484L278.745 41.4436V41.3638L278.829 41.2808ZM283.187 36.8182L281.411 36.3329L280.441 36.2501L278.261 36.7385L275.515 37.5486L273.982 37.874L272.69 37.9537L272.611 38.1996L272.77 39.0925V39.2518L272.853 39.4141L272.932 39.4978H273.012L273.175 39.4141L273.337 39.3353L278.503 38.0365L279.957 37.9537L280.362 38.2793L280.521 38.7672L280.604 39.0097L280.684 41.0385L280.847 42.4198L280.764 45.501L280.847 47.5297L280.764 48.7485L280.441 49.3164L280.279 49.4789H279.472H279.31L276.89 48.7485L276.484 48.5029L276.647 49.0705L277.132 49.7208L277.617 50.1264L279.31 50.777L282.54 52.2348L282.702 52.155H282.782L282.865 51.9925L282.623 48.7485V43.2294L282.865 39.5772L282.945 38.1162L283.346 37.3061L283.429 37.1436V37.0636L283.346 36.901L283.187 36.8182ZM115.299 40.9358L115.218 42.3533L115.141 42.8266L114.906 43.1393L114.748 43.3776H114.359H114.201L113.966 43.1393L113.731 42.9844L113.653 41.8796L113.731 41.7252L113.889 41.4868L114.359 41.0164L114.594 40.6202L114.983 40.7009L115.141 40.7781L115.299 40.9358ZM105.193 39.5182L104.723 39.2833L104.569 39.2061L104.488 39.2833H104.333L104.253 39.3605L104.333 40.7781L104.488 41.3285L104.646 41.7252L104.723 41.8026H105.744L106.446 41.6445L106.604 41.5668L106.681 41.4868L106.762 41.2513L106.369 40.6202V40.4656L105.193 39.5182ZM112.636 37.0001L112.478 36.9229L112.243 36.7646H112.008L111.773 36.9229L111.537 37.0801L111.46 37.2385L110.52 37.9469L109.267 38.6557H108.562L108.485 38.7329L108.327 38.8906L108.092 39.2061V39.3605V39.6766L108.169 39.9921L108.562 43.0616L108.797 44.6368L109.109 45.3456L109.344 45.6577L109.425 45.7385H109.502L109.66 45.8157L110.127 45.5808H110.208L111.93 43.6125L112.008 43.6934L112.085 48.0224L111.695 48.4928L111.46 48.6505H111.383L108.015 48.2578L107.702 48.0996L107.151 47.784L106.604 47.3136L106.211 46.7632L105.976 46.1316L105.899 45.7385L105.976 45.4228L106.446 44.7952L106.604 44.5568V44.3213V44.1636L105.976 43.7706L105.509 43.6125H105.193L104.958 43.6934L104.881 43.7706V43.9284L104.803 44.1636L104.881 44.4796L105.193 46.1316L105.586 47.1558L106.211 48.4928L105.429 48.731H105.351L103.158 48.8854L103 49.0432L103.628 49.91L104.018 50.2256L105.821 49.752L106.916 49.517H109.502L113.811 49.91L114.436 50.1449L114.983 50.4605L115.064 50.541L115.612 51.485H115.689L115.77 51.643L116.001 51.7202H116.082H118.275L120.857 51.3273L121.016 51.0921L120.857 50.9342L118.98 50.1449L117.647 49.752L115.924 49.517L115.376 49.359L113.653 48.8082H113.577L113.496 48.731L113.418 48.6505V48.335V48.1773V48.0996V44.9529V44.5568V44.4796H113.496L113.577 44.3985H113.653L115.924 45.2653L116.317 45.3456L116.394 45.2653L116.629 45.0301L116.864 44.3213L117.099 43.3776L117.257 41.4868L117.411 40.4656L117.805 39.7572L117.411 39.4417L116.864 39.2061H116.629L115.612 39.1256L114.829 39.2833L114.124 39.5182L113.811 39.5988L112.555 39.9921L112.32 40.1498L112.243 40.3078V40.385L111.93 41.5668L111.695 42.1184L110.755 43.1393L110.285 43.3776L110.208 43.4548H110.127H110.05L109.892 43.3776L109.579 42.9844L109.737 41.8796L109.892 41.4096L110.597 40.3078L112.871 37.8658L112.948 37.5506L112.871 37.2385L112.636 37.0001ZM135.641 36.0962L135.013 35.7802H134.935H134.858L134.7 35.8574L134.546 36.0962L134.465 36.1729L133.918 39.008L133.525 40.4252L133.289 40.5829L133.212 40.6601H133.135L131.255 41.0532L129.924 41.2114L129.844 41.3692L129.767 41.5269L129.844 42.0774L130.237 43.4144V43.4949H130.395H130.472L131.801 42.8633H132.195L132.272 42.9445L132.353 43.0212V43.1794L132.272 43.2566L131.255 45.1472L130.707 45.933L128.984 47.901L127.65 49.0837L125.693 50.6589L125.38 50.8938L125.303 51.0516H125.222V51.1288L125.303 51.2094L125.85 51.0516H126.008L127.496 50.5778L129.219 49.7116L129.531 49.5536L129.767 48.9253L129.924 48.4521L130.079 48.294L131.019 47.0345L131.255 46.9573L131.566 46.8801L132.117 46.9573L133.212 47.5078L133.995 48.294L133.918 48.4521L133.525 48.9253L133.37 49.0837L131.96 49.9498L130.079 50.8133V50.8938L130.314 51.0516L131.096 51.2094L132.195 51.1288L132.665 51.0516L133.918 50.2622L135.013 49.3186H135.328L136.346 49.7116L137.441 50.4206L138.227 51.1288L138.461 51.6024L138.697 52.3108L138.774 52.6269H138.851L139.009 52.7041H139.244L142.455 52.6269L144.255 52.4692L144.49 52.3108V52.2302L144.178 52.0725L144.021 51.9953V51.9178L139.164 50.0273L137.363 48.9253L136.268 48.1397L136.346 47.9818L136.581 47.5078L136.658 47.4306L137.756 45.4626L138.146 44.9122V44.8316L138.461 44.6738L138.539 44.5966L138.616 44.5158V44.4386L138.539 44.2809L138.461 44.2034L137.756 43.888L136.816 43.7296L135.563 43.888L134.153 44.3612L133.682 44.6738V44.7541L133.995 45.3049V45.3826H134.31L134.935 45.07L135.248 44.9894L135.406 45.07L135.563 45.3049V45.6209L135.328 46.4066V46.5646L135.171 46.9573L135.093 47.0345V47.115H135.013H134.935L132.819 45.4626L132.742 45.07L133.37 43.965L134.465 42.7053L134.935 42.3124L136.423 41.92L137.441 41.8425L139.086 41.7618L139.164 41.6848L139.009 40.8954V40.6601L138.539 39.559L138.381 39.4784H138.304L135.013 40.2672L134.935 40.1094L135.799 36.4884L135.641 36.0962ZM161.972 40.1481L162.207 40.6214L162.365 41.0146L162.288 42.1933L161.895 43.2181L161.737 43.5337L161.505 43.6914L161.27 43.7686L160.014 43.6914L159.779 43.4532V43.2953L159.702 43.0601L159.779 41.5657L159.86 41.0918L160.249 40.5414L160.484 40.2253L161.112 39.9904L161.66 40.071L161.972 40.1481ZM164.4 38.9656L163.305 38.7306L162.207 38.6534L161.112 38.8117L158.137 39.3625L157.744 39.5169L157.431 39.9904L157.273 40.306V40.4637V40.6986L157.666 41.4077V41.4849L158.056 42.9024L158.214 45.3445L158.291 46.6806L158.214 47.2313V48.1784L158.291 48.5713L158.137 52.6653L158.291 52.9778H158.372L158.449 53.0584L159.547 53.2161L159.625 53.0584L159.547 51.483L159.231 49.1993L159.312 47.3124L159.467 45.4217L159.625 45.1086L159.702 44.9512H159.779H159.86L162.6 45.8949L162.677 45.8144L163.07 45.5794L163.147 45.3445L163.228 45.2633L163.776 43.8492L164.246 42.0356L165.028 39.3625L164.951 39.2048L164.716 39.0466L164.4 38.9656ZM157.273 36.1353L156.413 35.4262L156.256 35.3457L155.943 35.2682L155.708 35.3457H155.55L152.498 37.552L150.539 39.1238L150.382 39.5169V39.7554H150.459L150.539 39.9132L150.774 40.1481L151.087 40.2253L151.399 40.306L151.557 40.4637L151.634 41.0146V41.1728L151.557 45.2633L151.634 46.5225L151.947 47.1541L152.262 47.7824L152.498 48.0981H152.652L152.887 48.0206L153.592 47.628L153.67 47.5474L155.55 45.4217L155.863 44.7126L156.568 43.0601L156.726 42.4317V42.1161V42.0356L156.098 42.9024L154.375 44.7126L153.438 45.3445L153.045 45.2633L152.81 45.1861H152.733V44.0846L152.887 43.7686L153.203 43.3756L153.438 43.2181L155.473 42.0356L155.785 41.8812L156.256 41.4077L156.333 41.1728L156.413 41.0146V40.8569L156.098 40.306L155.785 40.1481H155.55H155.473L154.61 40.6214L153.592 41.0146L152.968 41.0918L152.887 40.3832V39.8326L152.968 39.5169L153.045 39.3625L153.985 38.8117L155.863 37.8646L157.821 37.0788V36.9206L157.744 36.7629L157.273 36.212V36.1353ZM181.454 45.7366V45.9754L181.534 46.2104H181.454L181.299 46.2913L181.218 46.4453V46.6034L179.495 46.9192H179.341H179.261L179.183 46.9964H179.106L179.261 47.5508L179.495 48.0206H179.811L180.671 47.4696L181.141 47.3924L180.983 47.7857L180.046 48.9644L178.323 50.3818L177.302 51.0904L177.537 48.2556L177.618 46.6837H177.853H178.871L180.123 46.1332L181.064 45.5828H181.218H181.299L181.376 45.7366H181.454ZM184.899 45.0314L185.292 45.5828L185.528 46.1332V46.2913L184.822 46.0526H183.647L182.864 46.2104L182.941 45.7366L183.022 45.4245L182.864 45.2666H182.552L182.239 45.1086L182.004 45.0314L182.317 44.6354L182.787 44.323L183.804 44.4774L184.899 45.0314ZM178.948 42.6666L179.025 42.7477V42.9826L179.106 43.0634V43.2181L178.948 43.4565L178.636 43.6914L178.478 43.8492L178.401 44.0846L178.088 44.2424L178.401 44.4002H178.478L178.713 44.323L180.046 43.8492L180.359 43.5337V43.4565H180.516H180.748H180.906H181.064L181.218 43.5337L181.299 43.6914L181.376 43.772L181.454 43.8492L180.281 44.8737L178.948 45.66L178.401 45.8949L177.618 46.0526L177.537 43.2985L177.46 42.9826V42.7477V42.59L177.383 42.4317L177.93 42.2738L178.166 42.1966L178.636 42.5128L178.948 42.6666ZM182.706 41.3305L182.552 42.1161L182.394 42.59L182.081 42.5128L180.983 41.9584L180.748 42.4317L180.671 42.59L180.594 42.9057L180.359 42.7477L180.281 42.6666L180.201 42.5128V42.4317L180.046 42.3545V42.2738V42.1161L179.966 42.0389L180.748 41.5657L181.534 40.6214L182.239 40.7797L182.317 40.8569L182.706 41.3305ZM183.647 36.0581L183.177 35.7421L183.022 35.6612H182.629H182.317L182.159 35.8189V35.8998L181.534 37.9449L180.983 39.5205L180.201 40.8569L179.261 41.7234L178.948 41.646L178.008 41.5657L177.46 41.646L177.225 41.1728V41.0956L177.302 41.0146L177.383 40.9374L177.618 40.8569L178.636 40.306L179.261 39.5974L179.811 39.2045L179.966 39.0466V38.9696V38.8884V38.734L179.261 38.2608L178.478 37.9449L177.537 37.8677H177.302L175.345 38.1802L173.544 38.8117V38.9696L173.622 39.5974L173.702 39.836L173.779 39.9938L173.937 40.1481L174.015 40.2288L174.092 40.306L175.425 39.1276L176.365 38.734H177.148L177.618 39.285V39.4397L177.46 39.7554L177.148 40.1481L176.678 40.5442L176.597 40.6214L176.208 40.5442L175.815 40.306L175.58 40.1481H175.502L175.425 40.306L175.345 40.6214L175.267 40.6986L175.425 41.804L176.365 41.8812V42.0389L176.285 42.1161L175.189 42.6666L173.622 43.1406L172.603 43.4565L172.527 43.614L172.449 43.8492V44.0846L172.839 45.1861H172.996L173.857 44.4002L175.58 43.1406H175.66H175.737H175.815L175.895 43.2985V43.4565H175.972V43.5337V43.772V43.9269L175.189 45.0314L173.544 46.6034L172.681 47.2346L171.351 47.9434V48.1012L171.979 48.1784V48.2556L173.232 48.1784H173.467L173.622 48.1012L173.702 48.0206L174.172 47.2346L174.249 47.0766L176.13 44.9512L176.208 44.8737H176.285L176.365 44.9512L176.52 45.1086L176.597 45.2666V46.2913L176.52 48.2556L176.365 49.0454L176.13 49.361L176.05 49.4376L175.815 49.515L175.425 49.596L174.172 49.2026L173.937 49.1221V49.2804L174.249 49.6728L175.425 51.0132L176.678 52.1149H176.913V52.0341L177.225 51.4058L177.302 51.3286H177.93H178.088L179.73 50.6974L180.671 50.0694L180.906 50.3818L182.394 51.9569L183.022 52.4304L184.04 52.8234L184.117 52.6653H184.198V52.5881L184.433 51.5636L184.745 50.3818L185.292 49.2804L185.998 47.2346L186.233 46.7612L188.033 46.8417L189.756 46.6034V46.4453L189.367 46.0526L188.581 45.7366L186.938 45.1086L184.352 43.6914L183.728 43.2181L183.647 43.0634V42.9057V42.6666L184.198 41.3305V41.1728L184.433 40.8569L185.134 40.3865L186.78 39.5205L186.857 39.3625L186.78 39.2045L186.467 38.8117L185.998 37.9449L185.84 38.0261H185.763L185.45 38.338L184.664 38.8884L182.941 39.4397L182.004 39.5205L181.924 39.3625L182.317 38.2608L183.022 36.9206L183.647 36.0581Z" fill="white"/>
<path d="M108.837 60.2419V62.99H108.62C108.55 62.4626 108.423 62.0427 108.239 61.7302C108.06 61.4177 107.802 61.1697 107.466 60.9861C107.13 60.8025 106.782 60.7107 106.423 60.7107C106.017 60.7107 105.681 60.8357 105.415 61.0857C105.149 61.3318 105.017 61.613 105.017 61.9294C105.017 62.1716 105.101 62.3923 105.269 62.5916C105.511 62.8845 106.087 63.2751 106.997 63.7634C107.739 64.1619 108.245 64.4685 108.515 64.6833C108.788 64.8943 108.997 65.1443 109.142 65.4333C109.29 65.7224 109.364 66.0251 109.364 66.3416C109.364 66.9431 109.13 67.4626 108.661 67.9001C108.196 68.3337 107.597 68.5505 106.862 68.5505C106.632 68.5505 106.415 68.533 106.212 68.4978C106.091 68.4783 105.839 68.408 105.456 68.2869C105.077 68.1619 104.837 68.0994 104.735 68.0994C104.638 68.0994 104.56 68.1287 104.501 68.1873C104.446 68.2458 104.405 68.3669 104.378 68.5505H104.161V65.8259H104.378C104.479 66.3962 104.616 66.824 104.788 67.1091C104.96 67.3904 105.222 67.6248 105.573 67.8123C105.929 67.9998 106.317 68.0935 106.739 68.0935C107.228 68.0935 107.612 67.9646 107.894 67.7068C108.179 67.449 108.321 67.1443 108.321 66.7927C108.321 66.5974 108.267 66.4001 108.157 66.2009C108.052 66.0017 107.886 65.8162 107.659 65.6443C107.507 65.5271 107.091 65.2791 106.411 64.9001C105.731 64.5173 105.247 64.2126 104.958 63.9861C104.673 63.7595 104.456 63.5095 104.308 63.2361C104.159 62.9626 104.085 62.6619 104.085 62.3337C104.085 61.7634 104.304 61.2732 104.741 60.863C105.179 60.449 105.735 60.2419 106.411 60.2419C106.833 60.2419 107.28 60.3455 107.753 60.5525C107.972 60.6501 108.126 60.699 108.216 60.699C108.317 60.699 108.399 60.6697 108.462 60.6111C108.528 60.5486 108.581 60.4255 108.62 60.2419H108.837ZM110.003 63.5349L111.655 62.8669H111.878V64.1208C112.155 63.6482 112.433 63.3181 112.71 63.1306C112.991 62.9392 113.286 62.8435 113.595 62.8435C114.134 62.8435 114.583 63.0544 114.942 63.4763C115.384 63.9919 115.604 64.6638 115.604 65.4919C115.604 66.4177 115.339 67.1833 114.808 67.7888C114.37 68.2849 113.819 68.533 113.155 68.533C112.866 68.533 112.616 68.4919 112.405 68.4099C112.249 68.3513 112.073 68.2341 111.878 68.0583V69.6931C111.878 70.0603 111.899 70.2927 111.942 70.3904C111.989 70.4919 112.067 70.572 112.177 70.6306C112.29 70.6892 112.493 70.7185 112.786 70.7185V70.9353H109.974V70.7185H110.12C110.335 70.7224 110.519 70.6814 110.671 70.5955C110.745 70.5525 110.802 70.4822 110.841 70.3845C110.884 70.2908 110.905 70.0486 110.905 69.658V64.5837C110.905 64.2361 110.89 64.0154 110.858 63.9216C110.827 63.8279 110.776 63.7576 110.706 63.7107C110.64 63.6638 110.548 63.6404 110.431 63.6404C110.337 63.6404 110.218 63.6677 110.073 63.7224L110.003 63.5349ZM111.878 64.4666V66.4705C111.878 66.9041 111.896 67.1892 111.931 67.3259C111.985 67.5525 112.118 67.7517 112.329 67.9236C112.544 68.0955 112.813 68.1814 113.138 68.1814C113.528 68.1814 113.845 68.0291 114.087 67.7244C114.403 67.3259 114.562 66.7654 114.562 66.0427C114.562 65.2224 114.382 64.5916 114.022 64.1501C113.772 63.8455 113.476 63.6931 113.132 63.6931C112.944 63.6931 112.759 63.74 112.575 63.8337C112.435 63.9041 112.202 64.115 111.878 64.4666ZM117.292 65.0232C117.288 65.8201 117.481 66.4451 117.872 66.8982C118.263 67.3513 118.722 67.5779 119.249 67.5779C119.601 67.5779 119.905 67.4822 120.163 67.2908C120.425 67.0955 120.644 66.7634 120.819 66.2947L121.001 66.4119C120.919 66.947 120.681 67.4353 120.286 67.8767C119.892 68.3142 119.397 68.533 118.804 68.533C118.159 68.533 117.606 68.283 117.146 67.783C116.688 67.2791 116.46 66.6033 116.46 65.7556C116.46 64.8376 116.694 64.1228 117.163 63.6111C117.636 63.0955 118.228 62.8376 118.938 62.8376C119.54 62.8376 120.034 63.0369 120.421 63.4353C120.808 63.8298 121.001 64.3591 121.001 65.0232H117.292ZM117.292 64.6833H119.776C119.757 64.3396 119.716 64.0974 119.653 63.9568C119.556 63.738 119.409 63.5662 119.214 63.4412C119.022 63.3162 118.821 63.2537 118.61 63.2537C118.286 63.2537 117.995 63.3806 117.737 63.6345C117.483 63.8845 117.335 64.2341 117.292 64.6833ZM126.28 66.3298C126.136 67.0369 125.853 67.5818 125.431 67.9646C125.009 68.3435 124.542 68.533 124.03 68.533C123.421 68.533 122.89 68.2771 122.437 67.7654C121.983 67.2537 121.757 66.5623 121.757 65.6912C121.757 64.8474 122.007 64.1619 122.507 63.6345C123.011 63.1072 123.614 62.8435 124.317 62.8435C124.845 62.8435 125.278 62.9841 125.618 63.2654C125.958 63.5427 126.128 63.8318 126.128 64.1326C126.128 64.281 126.079 64.4021 125.981 64.4958C125.888 64.5857 125.755 64.6306 125.583 64.6306C125.353 64.6306 125.179 64.5564 125.062 64.408C124.995 64.3259 124.95 64.1697 124.927 63.9392C124.907 63.7087 124.829 63.533 124.692 63.4119C124.556 63.2947 124.366 63.2361 124.124 63.2361C123.733 63.2361 123.419 63.3806 123.181 63.6697C122.864 64.0525 122.706 64.5583 122.706 65.1873C122.706 65.8279 122.862 66.3943 123.175 66.8865C123.491 67.3748 123.917 67.6189 124.452 67.6189C124.835 67.6189 125.179 67.488 125.483 67.2263C125.698 67.0466 125.907 66.7205 126.11 66.2478L126.28 66.3298ZM128.419 60.0369C128.583 60.0369 128.722 60.0955 128.835 60.2126C128.952 60.3259 129.011 60.4646 129.011 60.6287C129.011 60.7927 128.952 60.9333 128.835 61.0505C128.722 61.1677 128.583 61.2263 128.419 61.2263C128.255 61.2263 128.114 61.1677 127.997 61.0505C127.88 60.9333 127.821 60.7927 127.821 60.6287C127.821 60.4646 127.878 60.3259 127.991 60.2126C128.108 60.0955 128.251 60.0369 128.419 60.0369ZM128.905 62.8435V67.156C128.905 67.4919 128.929 67.7166 128.976 67.8298C129.026 67.9392 129.099 68.0212 129.192 68.0759C129.29 68.1306 129.466 68.158 129.72 68.158V68.3689H127.112V68.158C127.374 68.158 127.55 68.1326 127.64 68.0818C127.729 68.031 127.8 67.947 127.851 67.8298C127.905 67.7126 127.933 67.488 127.933 67.156V65.0876C127.933 64.5056 127.915 64.1287 127.88 63.9568C127.853 63.8318 127.81 63.7458 127.751 63.699C127.692 63.6482 127.612 63.6228 127.511 63.6228C127.401 63.6228 127.269 63.6521 127.112 63.7107L127.03 63.4998L128.647 62.8435H128.905ZM133.435 67.5955C132.884 68.0212 132.538 68.2673 132.397 68.3337C132.187 68.4314 131.962 68.4802 131.724 68.4802C131.353 68.4802 131.046 68.3533 130.804 68.0994C130.565 67.8455 130.446 67.5115 130.446 67.0974C130.446 66.8357 130.505 66.6091 130.622 66.4177C130.782 66.1521 131.06 65.9021 131.454 65.6677C131.853 65.4333 132.513 65.1482 133.435 64.8123V64.6013C133.435 64.0662 133.349 63.699 133.177 63.4998C133.009 63.3005 132.763 63.2009 132.438 63.2009C132.192 63.2009 131.997 63.2673 131.853 63.4001C131.704 63.533 131.63 63.6853 131.63 63.8572L131.642 64.197C131.642 64.3767 131.595 64.5154 131.501 64.613C131.411 64.7107 131.292 64.7595 131.144 64.7595C130.999 64.7595 130.88 64.7087 130.786 64.6072C130.696 64.5056 130.651 64.3669 130.651 64.1912C130.651 63.8552 130.823 63.5466 131.167 63.2654C131.511 62.9841 131.993 62.8435 132.614 62.8435C133.091 62.8435 133.481 62.9236 133.786 63.0837C134.017 63.2048 134.187 63.3943 134.296 63.6521C134.366 63.8201 134.401 64.1638 134.401 64.6833V66.5056C134.401 67.0173 134.411 67.3318 134.431 67.449C134.45 67.5623 134.481 67.6384 134.524 67.6775C134.571 67.7166 134.624 67.7361 134.683 67.7361C134.745 67.7361 134.8 67.7224 134.847 67.6951C134.929 67.6443 135.087 67.5017 135.321 67.2673V67.5955C134.884 68.1814 134.466 68.4744 134.067 68.4744C133.876 68.4744 133.724 68.408 133.61 68.2751C133.497 68.1423 133.438 67.9158 133.435 67.5955ZM133.435 67.2146V65.1697C132.845 65.4041 132.464 65.5701 132.292 65.6677C131.983 65.8396 131.763 66.0193 131.63 66.2068C131.497 66.3943 131.431 66.5994 131.431 66.822C131.431 67.1033 131.515 67.3376 131.683 67.5251C131.851 67.7087 132.044 67.8005 132.263 67.8005C132.56 67.8005 132.95 67.6052 133.435 67.2146ZM137.571 60.0369V67.156C137.571 67.4919 137.595 67.7146 137.642 67.824C137.692 67.9333 137.769 68.0173 137.87 68.0759C137.972 68.1306 138.161 68.158 138.438 68.158V68.3689H135.808V68.158C136.054 68.158 136.222 68.1326 136.312 68.0818C136.401 68.031 136.472 67.947 136.522 67.8298C136.573 67.7126 136.599 67.488 136.599 67.156V62.281C136.599 61.6755 136.585 61.3044 136.558 61.1677C136.53 61.0271 136.485 60.9314 136.423 60.8806C136.364 60.8298 136.288 60.8044 136.194 60.8044C136.093 60.8044 135.964 60.8357 135.808 60.8982L135.708 60.6931L137.308 60.0369H137.571ZM140.431 60.0369C140.595 60.0369 140.733 60.0955 140.847 60.2126C140.964 60.3259 141.022 60.4646 141.022 60.6287C141.022 60.7927 140.964 60.9333 140.847 61.0505C140.733 61.1677 140.595 61.2263 140.431 61.2263C140.267 61.2263 140.126 61.1677 140.009 61.0505C139.892 60.9333 139.833 60.7927 139.833 60.6287C139.833 60.4646 139.89 60.3259 140.003 60.2126C140.12 60.0955 140.263 60.0369 140.431 60.0369ZM140.917 62.8435V67.156C140.917 67.4919 140.94 67.7166 140.987 67.8298C141.038 67.9392 141.11 68.0212 141.204 68.0759C141.302 68.1306 141.478 68.158 141.731 68.158V68.3689H139.124V68.158C139.386 68.158 139.562 68.1326 139.651 68.0818C139.741 68.031 139.812 67.947 139.862 67.8298C139.917 67.7126 139.944 67.488 139.944 67.156V65.0876C139.944 64.5056 139.927 64.1287 139.892 63.9568C139.864 63.8318 139.821 63.7458 139.763 63.699C139.704 63.6482 139.624 63.6228 139.522 63.6228C139.413 63.6228 139.28 63.6521 139.124 63.7107L139.042 63.4998L140.659 62.8435H140.917ZM145.874 62.8435V64.6716H145.681C145.532 64.0974 145.341 63.7068 145.106 63.4998C144.876 63.2927 144.581 63.1892 144.222 63.1892C143.948 63.1892 143.728 63.2615 143.56 63.406C143.392 63.5505 143.308 63.7107 143.308 63.8865C143.308 64.1052 143.37 64.2927 143.495 64.449C143.616 64.6091 143.862 64.7791 144.233 64.9587L145.089 65.3748C145.882 65.7615 146.278 66.2712 146.278 66.9041C146.278 67.3923 146.093 67.7869 145.722 68.0876C145.354 68.3845 144.942 68.533 144.485 68.533C144.157 68.533 143.782 68.4744 143.36 68.3572C143.231 68.3181 143.126 68.2986 143.044 68.2986C142.954 68.2986 142.884 68.3494 142.833 68.4509H142.64V66.5349H142.833C142.942 67.0818 143.151 67.4939 143.46 67.7712C143.769 68.0486 144.114 68.1873 144.497 68.1873C144.767 68.1873 144.985 68.1091 145.153 67.9529C145.325 67.7927 145.411 67.6013 145.411 67.3787C145.411 67.1091 145.315 66.8826 145.124 66.699C144.937 66.5154 144.56 66.283 143.993 66.0017C143.427 65.7205 143.056 65.4666 142.88 65.24C142.704 65.0173 142.616 64.7361 142.616 64.3962C142.616 63.9548 142.767 63.5857 143.067 63.2888C143.372 62.9919 143.765 62.8435 144.245 62.8435C144.456 62.8435 144.712 62.8884 145.013 62.9783C145.212 63.0369 145.345 63.0662 145.411 63.0662C145.474 63.0662 145.522 63.0525 145.558 63.0251C145.593 62.9978 145.634 62.9373 145.681 62.8435H145.874ZM147.983 65.0232C147.979 65.8201 148.173 66.4451 148.563 66.8982C148.954 67.3513 149.413 67.5779 149.94 67.5779C150.292 67.5779 150.597 67.4822 150.854 67.2908C151.116 67.0955 151.335 66.7634 151.511 66.2947L151.692 66.4119C151.61 66.947 151.372 67.4353 150.978 67.8767C150.583 68.3142 150.089 68.533 149.495 68.533C148.851 68.533 148.298 68.283 147.837 67.783C147.38 67.2791 147.151 66.6033 147.151 65.7556C147.151 64.8376 147.386 64.1228 147.854 63.6111C148.327 63.0955 148.919 62.8376 149.63 62.8376C150.231 62.8376 150.726 63.0369 151.112 63.4353C151.499 63.8298 151.692 64.3591 151.692 65.0232H147.983ZM147.983 64.6833H150.468C150.448 64.3396 150.407 64.0974 150.345 63.9568C150.247 63.738 150.101 63.5662 149.905 63.4412C149.714 63.3162 149.513 63.2537 149.302 63.2537C148.978 63.2537 148.687 63.3806 148.429 63.6345C148.175 63.8845 148.026 64.2341 147.983 64.6833ZM157.499 64.6482V66.9626C157.499 67.4626 157.554 67.7732 157.663 67.8943C157.812 68.0662 158.036 68.1521 158.337 68.1521H158.642V68.3689H155.237V68.1521H155.536C155.872 68.1521 156.112 68.0427 156.257 67.824C156.335 67.7029 156.374 67.4158 156.374 66.9626V61.8298C156.374 61.3298 156.321 61.0193 156.216 60.8982C156.063 60.7263 155.837 60.6404 155.536 60.6404H155.237V60.4236H158.149C158.86 60.4236 159.421 60.4978 159.831 60.6462C160.241 60.7908 160.587 61.0369 160.868 61.3845C161.149 61.7322 161.29 62.1443 161.29 62.6208C161.29 63.2693 161.075 63.7966 160.646 64.2029C160.22 64.6091 159.616 64.8123 158.835 64.8123C158.644 64.8123 158.437 64.7986 158.214 64.7712C157.991 64.7439 157.753 64.7029 157.499 64.6482ZM157.499 64.3142C157.706 64.3533 157.89 64.3826 158.05 64.4021C158.21 64.4216 158.347 64.4314 158.46 64.4314C158.866 64.4314 159.216 64.2751 159.509 63.9626C159.806 63.6462 159.954 63.238 159.954 62.738C159.954 62.3943 159.884 62.0759 159.743 61.783C159.603 61.4861 159.403 61.2654 159.146 61.1208C158.888 60.9724 158.595 60.8982 158.267 60.8982C158.067 60.8982 157.812 60.9353 157.499 61.0095V64.3142ZM163.663 62.8435V64.0505C164.112 63.2458 164.573 62.8435 165.046 62.8435C165.261 62.8435 165.438 62.9099 165.579 63.0427C165.72 63.1716 165.79 63.322 165.79 63.4939C165.79 63.6462 165.739 63.7751 165.638 63.8806C165.536 63.9861 165.415 64.0388 165.274 64.0388C165.138 64.0388 164.983 63.9724 164.812 63.8396C164.644 63.7029 164.519 63.6345 164.437 63.6345C164.366 63.6345 164.29 63.6736 164.208 63.7517C164.032 63.9119 163.851 64.1755 163.663 64.5427V67.115C163.663 67.4119 163.7 67.6365 163.774 67.7888C163.825 67.8943 163.915 67.9822 164.044 68.0525C164.173 68.1228 164.358 68.158 164.601 68.158V68.3689H161.853V68.158C162.126 68.158 162.329 68.115 162.462 68.0291C162.56 67.9666 162.628 67.8669 162.667 67.7302C162.687 67.6638 162.696 67.4744 162.696 67.1619V65.0818C162.696 64.4568 162.683 64.0857 162.655 63.9685C162.632 63.8474 162.585 63.7595 162.515 63.7048C162.448 63.6501 162.364 63.6228 162.263 63.6228C162.142 63.6228 162.005 63.6521 161.853 63.7107L161.794 63.4998L163.417 62.8435H163.663ZM167.454 60.0369C167.618 60.0369 167.757 60.0955 167.87 60.2126C167.987 60.3259 168.046 60.4646 168.046 60.6287C168.046 60.7927 167.987 60.9333 167.87 61.0505C167.757 61.1677 167.618 61.2263 167.454 61.2263C167.29 61.2263 167.149 61.1677 167.032 61.0505C166.915 60.9333 166.856 60.7927 166.856 60.6287C166.856 60.4646 166.913 60.3259 167.026 60.2126C167.144 60.0955 167.286 60.0369 167.454 60.0369ZM167.94 62.8435V67.156C167.94 67.4919 167.964 67.7166 168.011 67.8298C168.062 67.9392 168.134 68.0212 168.228 68.0759C168.325 68.1306 168.501 68.158 168.755 68.158V68.3689H166.147V68.158C166.409 68.158 166.585 68.1326 166.675 68.0818C166.765 68.031 166.835 67.947 166.886 67.8298C166.94 67.7126 166.968 67.488 166.968 67.156V65.0876C166.968 64.5056 166.95 64.1287 166.915 63.9568C166.888 63.8318 166.845 63.7458 166.786 63.699C166.728 63.6482 166.647 63.6228 166.546 63.6228C166.437 63.6228 166.304 63.6521 166.147 63.7107L166.065 63.4998L167.683 62.8435H167.94ZM170.993 63.9802C171.622 63.2224 172.222 62.8435 172.792 62.8435C173.085 62.8435 173.337 62.9177 173.548 63.0662C173.759 63.2107 173.927 63.4509 174.052 63.7869C174.138 64.0212 174.181 64.3806 174.181 64.865V67.156C174.181 67.4958 174.208 67.7263 174.263 67.8474C174.306 67.9451 174.374 68.0212 174.468 68.0759C174.565 68.1306 174.743 68.158 175.001 68.158V68.3689H172.347V68.158H172.458C172.708 68.158 172.882 68.1208 172.979 68.0466C173.081 67.9685 173.151 67.8552 173.19 67.7068C173.206 67.6482 173.214 67.4646 173.214 67.156V64.9587C173.214 64.4705 173.149 64.1169 173.021 63.8982C172.896 63.6755 172.683 63.5642 172.382 63.5642C171.917 63.5642 171.454 63.8181 170.993 64.3259V67.156C170.993 67.5193 171.015 67.7439 171.058 67.8298C171.112 67.9431 171.187 68.0271 171.28 68.0818C171.378 68.1326 171.573 68.158 171.866 68.158V68.3689H169.212V68.158H169.329C169.603 68.158 169.786 68.0896 169.88 67.9529C169.978 67.8123 170.026 67.5466 170.026 67.156V65.1638C170.026 64.5193 170.011 64.1267 169.979 63.9861C169.952 63.8455 169.907 63.7498 169.845 63.699C169.786 63.6482 169.706 63.6228 169.604 63.6228C169.495 63.6228 169.364 63.6521 169.212 63.7107L169.124 63.4998L170.741 62.8435H170.993V63.9802ZM176.987 61.238V63.0017H178.241V63.4119H176.987V66.8923C176.987 67.24 177.036 67.4744 177.134 67.5955C177.235 67.7166 177.364 67.7771 177.521 67.7771C177.649 67.7771 177.774 67.738 177.896 67.6599C178.017 67.5779 178.11 67.4587 178.177 67.3025H178.405C178.269 67.6853 178.075 67.9744 177.825 68.1697C177.575 68.3611 177.317 68.4568 177.052 68.4568C176.872 68.4568 176.696 68.408 176.524 68.3103C176.353 68.2087 176.226 68.0662 176.144 67.8826C176.062 67.6951 176.021 67.408 176.021 67.0212V63.4119H175.171V63.2185C175.386 63.1326 175.604 62.988 175.827 62.7849C176.054 62.5779 176.255 62.3337 176.431 62.0525C176.521 61.9041 176.646 61.6326 176.806 61.238H176.987ZM179.671 65.0232C179.667 65.8201 179.86 66.4451 180.251 66.8982C180.642 67.3513 181.101 67.5779 181.628 67.5779C181.979 67.5779 182.284 67.4822 182.542 67.2908C182.804 67.0955 183.022 66.7634 183.198 66.2947L183.38 66.4119C183.298 66.947 183.06 67.4353 182.665 67.8767C182.271 68.3142 181.776 68.533 181.183 68.533C180.538 68.533 179.985 68.283 179.524 67.783C179.067 67.2791 178.839 66.6033 178.839 65.7556C178.839 64.8376 179.073 64.1228 179.542 63.6111C180.015 63.0955 180.606 62.8376 181.317 62.8376C181.919 62.8376 182.413 63.0369 182.8 63.4353C183.187 63.8298 183.38 64.3591 183.38 65.0232H179.671ZM179.671 64.6833H182.155C182.136 64.3396 182.095 64.0974 182.032 63.9568C181.935 63.738 181.788 63.5662 181.593 63.4412C181.401 63.3162 181.2 63.2537 180.989 63.2537C180.665 63.2537 180.374 63.3806 180.116 63.6345C179.862 63.8845 179.714 64.2341 179.671 64.6833ZM187.892 67.7654C187.63 68.0388 187.374 68.2361 187.124 68.3572C186.874 68.4744 186.604 68.533 186.315 68.533C185.729 68.533 185.218 68.2888 184.78 67.8005C184.343 67.3083 184.124 66.6775 184.124 65.908C184.124 65.1384 184.366 64.4353 184.851 63.7986C185.335 63.158 185.958 62.8376 186.72 62.8376C187.192 62.8376 187.583 62.988 187.892 63.2888V62.2986C187.892 61.6853 187.876 61.3083 187.845 61.1677C187.817 61.0271 187.772 60.9314 187.71 60.8806C187.647 60.8298 187.569 60.8044 187.476 60.8044C187.374 60.8044 187.239 60.8357 187.071 60.8982L186.995 60.6931L188.595 60.0369H188.858V66.2419C188.858 66.8708 188.872 67.2556 188.899 67.3962C188.931 67.533 188.978 67.6287 189.04 67.6833C189.106 67.738 189.183 67.7654 189.269 67.7654C189.374 67.7654 189.515 67.7322 189.69 67.6658L189.755 67.8708L188.161 68.533H187.892V67.7654ZM187.892 67.3552V64.5896C187.868 64.324 187.798 64.0818 187.681 63.863C187.563 63.6443 187.407 63.4802 187.212 63.3708C187.021 63.2576 186.833 63.2009 186.649 63.2009C186.306 63.2009 185.999 63.3552 185.729 63.6638C185.374 64.0701 185.196 64.6638 185.196 65.4451C185.196 66.2341 185.368 66.8396 185.712 67.2615C186.056 67.6794 186.438 67.8884 186.86 67.8884C187.216 67.8884 187.56 67.7107 187.892 67.3552ZM198.228 60.2419V62.99H198.011C197.94 62.4626 197.813 62.0427 197.63 61.7302C197.45 61.4177 197.192 61.1697 196.856 60.9861C196.521 60.8025 196.173 60.7107 195.813 60.7107C195.407 60.7107 195.071 60.8357 194.806 61.0857C194.54 61.3318 194.407 61.613 194.407 61.9294C194.407 62.1716 194.491 62.3923 194.659 62.5916C194.901 62.8845 195.478 63.2751 196.388 63.7634C197.13 64.1619 197.636 64.4685 197.905 64.6833C198.179 64.8943 198.388 65.1443 198.532 65.4333C198.681 65.7224 198.755 66.0251 198.755 66.3416C198.755 66.9431 198.521 67.4626 198.052 67.9001C197.587 68.3337 196.987 68.5505 196.253 68.5505C196.022 68.5505 195.806 68.533 195.603 68.4978C195.481 68.4783 195.229 68.408 194.847 68.2869C194.468 68.1619 194.228 68.0994 194.126 68.0994C194.028 68.0994 193.95 68.1287 193.892 68.1873C193.837 68.2458 193.796 68.3669 193.769 68.5505H193.552V65.8259H193.769C193.87 66.3962 194.007 66.824 194.179 67.1091C194.351 67.3904 194.612 67.6248 194.964 67.8123C195.319 67.9998 195.708 68.0935 196.13 68.0935C196.618 68.0935 197.003 67.9646 197.284 67.7068C197.569 67.449 197.712 67.1443 197.712 66.7927C197.712 66.5974 197.657 66.4001 197.548 66.2009C197.442 66.0017 197.276 65.8162 197.05 65.6443C196.897 65.5271 196.481 65.2791 195.802 64.9001C195.122 64.5173 194.638 64.2126 194.349 63.9861C194.063 63.7595 193.847 63.5095 193.698 63.2361C193.55 62.9626 193.476 62.6619 193.476 62.3337C193.476 61.7634 193.694 61.2732 194.132 60.863C194.569 60.449 195.126 60.2419 195.802 60.2419C196.224 60.2419 196.671 60.3455 197.144 60.5525C197.362 60.6501 197.517 60.699 197.606 60.699C197.708 60.699 197.79 60.6697 197.853 60.6111C197.919 60.5486 197.972 60.4255 198.011 60.2419H198.228ZM201.339 61.238V63.0017H202.593V63.4119H201.339V66.8923C201.339 67.24 201.388 67.4744 201.485 67.5955C201.587 67.7166 201.716 67.7771 201.872 67.7771C202.001 67.7771 202.126 67.738 202.247 67.6599C202.368 67.5779 202.462 67.4587 202.528 67.3025H202.757C202.62 67.6853 202.427 67.9744 202.177 68.1697C201.927 68.3611 201.669 68.4568 201.403 68.4568C201.224 68.4568 201.048 68.408 200.876 68.3103C200.704 68.2087 200.577 68.0662 200.495 67.8826C200.413 67.6951 200.372 67.408 200.372 67.0212V63.4119H199.522V63.2185C199.737 63.1326 199.956 62.988 200.179 62.7849C200.405 62.5779 200.606 62.3337 200.782 62.0525C200.872 61.9041 200.997 61.6326 201.157 61.238H201.339ZM204.485 60.0369C204.649 60.0369 204.788 60.0955 204.901 60.2126C205.019 60.3259 205.077 60.4646 205.077 60.6287C205.077 60.7927 205.019 60.9333 204.901 61.0505C204.788 61.1677 204.649 61.2263 204.485 61.2263C204.321 61.2263 204.181 61.1677 204.063 61.0505C203.946 60.9333 203.888 60.7927 203.888 60.6287C203.888 60.4646 203.944 60.3259 204.058 60.2126C204.175 60.0955 204.317 60.0369 204.485 60.0369ZM204.972 62.8435V67.156C204.972 67.4919 204.995 67.7166 205.042 67.8298C205.093 67.9392 205.165 68.0212 205.259 68.0759C205.356 68.1306 205.532 68.158 205.786 68.158V68.3689H203.179V68.158C203.44 68.158 203.616 68.1326 203.706 68.0818C203.796 68.031 203.866 67.947 203.917 67.8298C203.972 67.7126 203.999 67.488 203.999 67.156V65.0876C203.999 64.5056 203.981 64.1287 203.946 63.9568C203.919 63.8318 203.876 63.7458 203.817 63.699C203.759 63.6482 203.679 63.6228 203.577 63.6228C203.468 63.6228 203.335 63.6521 203.179 63.7107L203.097 63.4998L204.714 62.8435H204.972ZM211.019 66.3298C210.874 67.0369 210.591 67.5818 210.169 67.9646C209.747 68.3435 209.28 68.533 208.769 68.533C208.159 68.533 207.628 68.2771 207.175 67.7654C206.722 67.2537 206.495 66.5623 206.495 65.6912C206.495 64.8474 206.745 64.1619 207.245 63.6345C207.749 63.1072 208.353 62.8435 209.056 62.8435C209.583 62.8435 210.017 62.9841 210.356 63.2654C210.696 63.5427 210.866 63.8318 210.866 64.1326C210.866 64.281 210.817 64.4021 210.72 64.4958C210.626 64.5857 210.493 64.6306 210.321 64.6306C210.091 64.6306 209.917 64.5564 209.8 64.408C209.733 64.3259 209.688 64.1697 209.665 63.9392C209.646 63.7087 209.567 63.533 209.431 63.4119C209.294 63.2947 209.104 63.2361 208.862 63.2361C208.472 63.2361 208.157 63.3806 207.919 63.6697C207.603 64.0525 207.444 64.5583 207.444 65.1873C207.444 65.8279 207.601 66.3943 207.913 66.8865C208.229 67.3748 208.655 67.6189 209.19 67.6189C209.573 67.6189 209.917 67.488 210.222 67.2263C210.437 67.0466 210.646 66.7205 210.849 66.2478L211.019 66.3298ZM213.38 60.0369V65.3748L214.745 64.1326C215.034 63.8669 215.202 63.699 215.249 63.6287C215.28 63.5818 215.296 63.5349 215.296 63.488C215.296 63.4099 215.263 63.3435 215.196 63.2888C215.134 63.2302 215.028 63.197 214.88 63.1892V63.0017H217.212V63.1892C216.892 63.197 216.624 63.2458 216.409 63.3357C216.198 63.4255 215.966 63.5857 215.712 63.8162L214.335 65.0876L215.712 66.8279C216.095 67.3083 216.353 67.613 216.485 67.7419C216.673 67.9255 216.837 68.0447 216.978 68.0994C217.075 68.1384 217.245 68.158 217.487 68.158V68.3689H214.88V68.158C215.028 68.1541 215.128 68.1326 215.179 68.0935C215.233 68.0505 215.261 67.9919 215.261 67.9177C215.261 67.8279 215.183 67.6833 215.026 67.4841L213.38 65.3806V67.1619C213.38 67.5095 213.403 67.738 213.45 67.8474C213.501 67.9568 213.571 68.0349 213.661 68.0818C213.751 68.1287 213.946 68.1541 214.247 68.158V68.3689H211.517V68.158C211.79 68.158 211.995 68.1248 212.132 68.0583C212.214 68.0154 212.276 67.949 212.319 67.8591C212.378 67.7302 212.407 67.5076 212.407 67.1912V62.3044C212.407 61.6833 212.394 61.3044 212.366 61.1677C212.339 61.0271 212.294 60.9314 212.231 60.8806C212.169 60.8259 212.087 60.7986 211.985 60.7986C211.903 60.7986 211.78 60.8318 211.616 60.8982L211.517 60.6931L213.11 60.0369H213.38ZM218.694 65.0232C218.69 65.8201 218.884 66.4451 219.274 66.8982C219.665 67.3513 220.124 67.5779 220.651 67.5779C221.003 67.5779 221.308 67.4822 221.565 67.2908C221.827 67.0955 222.046 66.7634 222.222 66.2947L222.403 66.4119C222.321 66.947 222.083 67.4353 221.688 67.8767C221.294 68.3142 220.8 68.533 220.206 68.533C219.562 68.533 219.009 68.283 218.548 67.783C218.091 67.2791 217.862 66.6033 217.862 65.7556C217.862 64.8376 218.097 64.1228 218.565 63.6111C219.038 63.0955 219.63 62.8376 220.341 62.8376C220.942 62.8376 221.437 63.0369 221.823 63.4353C222.21 63.8298 222.403 64.3591 222.403 65.0232H218.694ZM218.694 64.6833H221.179C221.159 64.3396 221.118 64.0974 221.056 63.9568C220.958 63.738 220.812 63.5662 220.616 63.4412C220.425 63.3162 220.224 63.2537 220.013 63.2537C219.688 63.2537 219.397 63.3806 219.14 63.6345C218.886 63.8845 218.737 64.2341 218.694 64.6833ZM224.694 62.8435V64.0505C225.144 63.2458 225.604 62.8435 226.077 62.8435C226.292 62.8435 226.47 62.9099 226.61 63.0427C226.751 63.1716 226.821 63.322 226.821 63.4939C226.821 63.6462 226.771 63.7751 226.669 63.8806C226.567 63.9861 226.446 64.0388 226.306 64.0388C226.169 64.0388 226.015 63.9724 225.843 63.8396C225.675 63.7029 225.55 63.6345 225.468 63.6345C225.397 63.6345 225.321 63.6736 225.239 63.7517C225.063 63.9119 224.882 64.1755 224.694 64.5427V67.115C224.694 67.4119 224.731 67.6365 224.806 67.7888C224.856 67.8943 224.946 67.9822 225.075 68.0525C225.204 68.1228 225.39 68.158 225.632 68.158V68.3689H222.884V68.158C223.157 68.158 223.36 68.115 223.493 68.0291C223.591 67.9666 223.659 67.8669 223.698 67.7302C223.718 67.6638 223.728 67.4744 223.728 67.1619V65.0818C223.728 64.4568 223.714 64.0857 223.687 63.9685C223.663 63.8474 223.616 63.7595 223.546 63.7048C223.479 63.6501 223.396 63.6228 223.294 63.6228C223.173 63.6228 223.036 63.6521 222.884 63.7107L222.825 63.4998L224.448 62.8435H224.694ZM236.624 66.1716L236.817 66.2126L236.138 68.3689H229.985V68.1521H230.284C230.62 68.1521 230.86 68.0427 231.005 67.824C231.087 67.699 231.128 67.4099 231.128 66.9568V61.8298C231.128 61.3337 231.073 61.0232 230.964 60.8982C230.812 60.7263 230.585 60.6404 230.284 60.6404H229.985V60.4236H233.583V60.6404C233.161 60.6365 232.864 60.6755 232.692 60.7576C232.524 60.8396 232.409 60.9431 232.347 61.0681C232.284 61.1931 232.253 61.4919 232.253 61.9646V66.9568C232.253 67.281 232.284 67.5037 232.347 67.6248C232.394 67.7068 232.466 67.7673 232.563 67.8064C232.661 67.8455 232.966 67.865 233.478 67.865H234.058C234.667 67.865 235.095 67.8201 235.341 67.7302C235.587 67.6404 235.812 67.4822 236.015 67.2556C236.218 67.0251 236.421 66.6638 236.624 66.1716ZM240.497 67.5955C239.946 68.0212 239.601 68.2673 239.46 68.3337C239.249 68.4314 239.024 68.4802 238.786 68.4802C238.415 68.4802 238.108 68.3533 237.866 68.0994C237.628 67.8455 237.509 67.5115 237.509 67.0974C237.509 66.8357 237.567 66.6091 237.685 66.4177C237.845 66.1521 238.122 65.9021 238.517 65.6677C238.915 65.4333 239.575 65.1482 240.497 64.8123V64.6013C240.497 64.0662 240.411 63.699 240.239 63.4998C240.071 63.3005 239.825 63.2009 239.501 63.2009C239.255 63.2009 239.06 63.2673 238.915 63.4001C238.767 63.533 238.692 63.6853 238.692 63.8572L238.704 64.197C238.704 64.3767 238.657 64.5154 238.563 64.613C238.474 64.7107 238.354 64.7595 238.206 64.7595C238.062 64.7595 237.942 64.7087 237.849 64.6072C237.759 64.5056 237.714 64.3669 237.714 64.1912C237.714 63.8552 237.886 63.5466 238.229 63.2654C238.573 62.9841 239.056 62.8435 239.677 62.8435C240.153 62.8435 240.544 62.9236 240.849 63.0837C241.079 63.2048 241.249 63.3943 241.358 63.6521C241.429 63.8201 241.464 64.1638 241.464 64.6833V66.5056C241.464 67.0173 241.474 67.3318 241.493 67.449C241.513 67.5623 241.544 67.6384 241.587 67.6775C241.634 67.7166 241.687 67.7361 241.745 67.7361C241.808 67.7361 241.862 67.7224 241.909 67.6951C241.991 67.6443 242.149 67.5017 242.384 67.2673V67.5955C241.946 68.1814 241.528 68.4744 241.13 68.4744C240.938 68.4744 240.786 68.408 240.673 68.2751C240.56 68.1423 240.501 67.9158 240.497 67.5955ZM240.497 67.2146V65.1697C239.907 65.4041 239.526 65.5701 239.354 65.6677C239.046 65.8396 238.825 66.0193 238.692 66.2068C238.56 66.3943 238.493 66.5994 238.493 66.822C238.493 67.1033 238.577 67.3376 238.745 67.5251C238.913 67.7087 239.106 67.8005 239.325 67.8005C239.622 67.8005 240.013 67.6052 240.497 67.2146ZM244.259 63.9275C244.778 63.2048 245.339 62.8435 245.94 62.8435C246.491 62.8435 246.972 63.0798 247.382 63.5525C247.792 64.0212 247.997 64.6638 247.997 65.4802C247.997 66.4333 247.681 67.2009 247.048 67.783C246.505 68.283 245.899 68.533 245.231 68.533C244.919 68.533 244.601 68.4763 244.276 68.363C243.956 68.2498 243.628 68.0798 243.292 67.8533V62.2927C243.292 61.6833 243.276 61.3083 243.245 61.1677C243.218 61.0271 243.173 60.9314 243.11 60.8806C243.048 60.8298 242.97 60.8044 242.876 60.8044C242.767 60.8044 242.63 60.8357 242.466 60.8982L242.384 60.6931L243.995 60.0369H244.259V63.9275ZM244.259 64.3025V67.5134C244.458 67.7087 244.663 67.8572 244.874 67.9587C245.089 68.0564 245.308 68.1052 245.53 68.1052C245.886 68.1052 246.216 67.9099 246.521 67.5193C246.829 67.1287 246.983 66.5603 246.983 65.8142C246.983 65.1267 246.829 64.5994 246.521 64.2322C246.216 63.8611 245.868 63.6755 245.478 63.6755C245.271 63.6755 245.063 63.7283 244.856 63.8337C244.7 63.9119 244.501 64.0681 244.259 64.3025ZM249.69 65.0232C249.687 65.8201 249.88 66.4451 250.271 66.8982C250.661 67.3513 251.12 67.5779 251.647 67.5779C251.999 67.5779 252.304 67.4822 252.562 67.2908C252.823 67.0955 253.042 66.7634 253.218 66.2947L253.399 66.4119C253.317 66.947 253.079 67.4353 252.685 67.8767C252.29 68.3142 251.796 68.533 251.202 68.533C250.558 68.533 250.005 68.283 249.544 67.783C249.087 67.2791 248.858 66.6033 248.858 65.7556C248.858 64.8376 249.093 64.1228 249.562 63.6111C250.034 63.0955 250.626 62.8376 251.337 62.8376C251.938 62.8376 252.433 63.0369 252.819 63.4353C253.206 63.8298 253.399 64.3591 253.399 65.0232H249.69ZM249.69 64.6833H252.175C252.155 64.3396 252.114 64.0974 252.052 63.9568C251.954 63.738 251.808 63.5662 251.612 63.4412C251.421 63.3162 251.22 63.2537 251.009 63.2537C250.685 63.2537 250.394 63.3806 250.136 63.6345C249.882 63.8845 249.733 64.2341 249.69 64.6833ZM255.966 60.0369V67.156C255.966 67.4919 255.989 67.7146 256.036 67.824C256.087 67.9333 256.163 68.0173 256.265 68.0759C256.366 68.1306 256.556 68.158 256.833 68.158V68.3689H254.202V68.158C254.448 68.158 254.616 68.1326 254.706 68.0818C254.796 68.031 254.866 67.947 254.917 67.8298C254.968 67.7126 254.993 67.488 254.993 67.156V62.281C254.993 61.6755 254.979 61.3044 254.952 61.1677C254.925 61.0271 254.88 60.9314 254.817 60.8806C254.759 60.8298 254.683 60.8044 254.589 60.8044C254.487 60.8044 254.358 60.8357 254.202 60.8982L254.103 60.6931L255.702 60.0369H255.966Z" fill="white"/>
</svg>
